<svg width="404" height="83" viewBox="0 0 404 83" fill="none" xmlns="http://www.w3.org/2000/svg">
<path fill-rule="evenodd" clip-rule="evenodd" d="M2.85642 22.0022C6.72119 18.0569 13.0525 17.9916 16.9978 21.8564L41.4978 45.8564C43.4052 47.7249 44.4861 50.2785 44.4999 52.9485C44.5136 55.6185 43.4591 58.1831 41.5711 60.0711L21.5711 80.0711C17.6658 83.9763 11.3342 83.9763 7.42894 80.0711C3.52369 76.1658 3.52369 69.8342 7.42894 65.9289L20.2846 53.0733L3.0022 36.1436C-0.943088 32.2788 -1.00836 25.9475 2.85642 22.0022Z" fill="#00DFB1"/>
<path fill-rule="evenodd" clip-rule="evenodd" d="M60.1791 3.124C64.5289 7.36505 64.6171 14.3293 60.376 18.6791L48.4585 30.9022L65.7782 48.2218C70.0739 52.5176 70.0739 59.4824 65.7782 63.7782C61.4824 68.0739 54.5176 68.0739 50.2218 63.7782L25.2218 38.7782C20.9645 34.5208 20.9209 27.6318 25.124 23.3209L44.624 3.3209C48.8651 -1.02889 55.8293 -1.11705 60.1791 3.124Z" fill="url(#paint0_linear)"/>
<path fill-rule="evenodd" clip-rule="evenodd" d="M43.5968 57.1543L25.2218 38.7786C22.1371 35.6937 21.2645 31.2271 22.6168 27.3607L41.4978 45.8572C43.4052 47.7257 44.4861 50.2794 44.4999 52.9495C44.5074 54.4143 44.1935 55.8473 43.5968 57.1543Z" fill="url(#paint1_linear)"/>
<path d="M129.84 62.9999H139.6V25.6399H129.84V30.2799C127.12 26.1199 121.6 24.8399 118.24 24.8399C108.4 24.8399 99.2 32.2799 99.2 44.2799C99.2 56.1999 108.4 63.7199 118.24 63.7199C121.92 63.7199 127.44 62.0399 129.84 58.1999V62.9999ZM109.28 44.2799C109.28 38.1999 114.24 34.1999 119.6 34.1999C124.72 34.1999 129.84 37.7999 129.84 44.2799C129.84 50.6799 124.88 54.3599 119.6 54.3599C114.24 54.3599 109.28 50.2799 109.28 44.2799Z" fill="#111852"/>
<path d="M145.861 44.1999C145.861 55.9599 155.301 63.7999 166.021 63.7999C172.341 63.7999 178.101 61.0799 181.621 56.4399L173.781 50.6799C172.021 53.0799 169.061 54.4399 166.021 54.4399C160.581 54.4399 155.541 50.2799 155.541 44.1999C155.541 38.1199 160.581 34.2799 166.021 34.2799C169.061 34.2799 172.021 35.5599 173.781 37.9599L181.541 32.1199C178.021 27.4799 172.261 24.8399 166.021 24.8399C155.301 24.8399 145.861 32.4399 145.861 44.1999Z" fill="#111852"/>
<path d="M203.996 54.1999C198.636 54.1999 194.236 50.2799 194.236 44.1999C194.236 38.2799 198.636 34.4399 203.996 34.4399C209.356 34.4399 213.756 38.2799 213.756 44.1999C213.756 50.2799 209.356 54.1999 203.996 54.1999ZM203.996 63.7199C214.556 63.7199 223.436 55.9599 223.436 44.1999C223.436 32.4399 214.556 24.8399 203.996 24.8399C193.356 24.8399 184.556 32.4399 184.556 44.1999C184.556 55.9599 193.356 63.7199 203.996 63.7199Z" fill="#111852"/>
<path d="M284.364 25.6399H273.964L266.364 49.2399L258.764 25.6399H250.124L242.604 49.2399L235.004 25.6399H224.604L238.364 62.9999H246.444L254.524 37.9599L262.844 62.9999H271.004L284.364 25.6399Z" fill="#111852"/>
<path d="M324.014 44.1999C324.014 32.4399 315.694 24.8399 305.054 24.8399C294.414 24.8399 285.694 32.4399 285.694 44.1999C285.694 55.9599 294.414 63.7999 305.054 63.7999C311.934 63.7999 319.134 61.1599 322.494 54.7599C320.094 53.4799 317.374 52.0399 315.054 50.7599C313.294 53.9599 309.454 55.5599 305.694 55.5599C300.174 55.5599 296.014 52.5199 295.374 47.5599H323.854C323.934 46.6799 324.014 45.1599 324.014 44.1999ZM295.294 40.9199C296.014 35.8799 300.014 32.9999 305.134 32.9999C309.934 32.9999 313.774 35.7999 314.494 40.9199H295.294Z" fill="#111852"/>
<path d="M339.753 44.1999C339.753 37.7999 344.633 34.1199 349.673 34.1199C355.113 34.1199 359.513 38.1199 359.513 44.1999C359.513 50.3599 355.113 54.4399 349.673 54.4399C344.393 54.4399 339.753 50.4399 339.753 44.1999ZM339.593 62.9999V57.9599C341.593 61.7199 346.393 63.7999 351.273 63.7999C361.033 63.7999 369.592 56.1999 369.592 44.3599C369.592 32.4399 361.113 24.8399 351.273 24.8399C346.313 24.8399 341.593 26.8399 339.593 30.5999V5.31995H329.833V62.9999H339.593Z" fill="#111852"/>
<path d="M384.988 47.3999L390.108 48.6799C392.828 49.3199 394.268 50.2799 394.188 52.1999C394.188 54.3599 392.028 55.8799 389.308 55.9599C385.708 56.1199 382.668 53.8799 382.428 51.2399H373.308C373.468 59.3199 380.988 63.7999 388.348 63.7999C396.108 63.7999 403.628 59.8799 403.628 52.2799C403.628 49.3199 402.508 43.3199 393.868 41.0799L387.628 39.5599C385.468 38.9999 383.708 37.9599 383.708 36.4399C383.708 33.6399 386.028 32.7599 388.428 32.7599C390.588 32.7599 393.308 33.7999 393.468 36.5999H402.748C402.428 28.0399 395.228 24.8399 388.188 24.8399C380.748 24.8399 374.428 29.9599 374.428 35.9599C374.428 40.3599 375.308 44.7599 384.988 47.3999Z" fill="#111852"/>
<defs>
<linearGradient id="paint0_linear" x1="28" y1="46" x2="80.5" y2="46" gradientUnits="userSpaceOnUse">
<stop stop-color="#00A3FF"/>
<stop offset="1" stop-color="#00C2FF"/>
</linearGradient>
<linearGradient id="paint1_linear" x1="20.6346" y1="88.6215" x2="20.6347" y2="2.46324" gradientUnits="userSpaceOnUse">
<stop stop-color="#006AFF"/>
<stop offset="1" stop-color="#01B1FF"/>
</linearGradient>
</defs>
</svg>
